<svg class="icon" viewBox="0 0 1024 1024" xmlns="http://www.w3.org/2000/svg" width="200" height="200">
  <path
      d="M955.99 398.507a86.357 86.357 0 00-69.206-58.198l-204.672-31.317-91.605-194.987A86.272 86.272 0 00512 64.085a86.357 86.357 0 00-78.507 49.92l-91.605 194.987-204.672 31.317a86.357 86.357 0 00-69.205 58.198 86.357 86.357 0 0020.181 88.106l150.699 154.454-35.584 218.026a86.827 86.827 0 00127.701 89.899L512 848.982 692.992 949.12a86.827 86.827 0 00127.701-89.899L785.11 641.195l150.699-154.496c22.784-23.382 30.507-57.174 20.181-88.192z"
      fill="#cdcdcd" opacity=".65"/>
</svg>